<svg xmlns="http://www.w3.org/2000/svg" version="1.1" xmlns:xlink="http://www.w3.org/1999/xlink"
     xmlns:svgjs="http://svgjs.com/svgjs" width="512" height="512" x="0" y="0" viewBox="0 0 44 58"
     style="enable-background:new 0 0 512 512" xml:space="preserve">
                          <g>
                            <g xmlns="http://www.w3.org/2000/svg" id="Page-1" fill="none" fill-rule="evenodd">
                              <g id="013---Beard-Man" fill-rule="nonzero" fill="none">
                                <path id="Shape"
                                      d="m8.986 28.924c-3.342.632-5.675-3.214-4.8-6.324.09380939-.6311401.49349582-1.1751239 1.06776246-1.453253.57426664-.2781292 1.24888287-.2544522 1.80223754.063253z"
                                      fill="#F9C795" data-original="#f9c795"></path>
                                  <path id="Shape"
                                        d="m36.94 21.21c.5533547-.3177052 1.2279709-.3413822 1.8022375-.063253.5742667.2781291.9739531.8221129 1.0677625 1.453253.879 3.11-1.454 6.956-4.8 6.324z"
                                        fill="#F9C795" data-original="#f9c795"></path>
                                  <path id="Shape"
                                        d="m42.41 56.42c-2.447997.4907791-4.9220252.8413499-7.41 1.05-.63.06-1.29.11-2 .16-2.97.22-6.61.37-11 .37s-8.03-.15-11-.37c-.71-.05-1.37-.1-2-.16-2.48797481-.2086501-4.96200299-.5592209-7.41-1.05-.98582864-.2004328-1.66513766-1.1076113-1.58-2.11.89-9.1 9.22-7.36 13.96-8.31.200005-.0401574.3971091-.0936094.59-.16 1.08 1.55 13.8 1.55 14.88 0 .1928909.0663906.389995.1198426.59.16 4.74.95 13.07-.79 13.96 8.31.0851377 1.0023887-.5941714 1.9095672-1.58 2.11z"
                                        fill="#955BA5" data-original="#955ba5"></path>
                                  <path id="Shape"
                                        d="m29.44 45.84c-1.8573038 2.6794652-4.1951145 4.9915074-6.895 6.819-.3321506.2128824-.7578494.2128824-1.09 0-2.6998855-1.8274926-5.0376962-4.1395348-6.895-6.819 1.87-.65 2.56-2.42 2.77-4.16h9.34c.21 1.74.9 3.51 2.77 4.16z"
                                        fill="#FDD7AD" data-original="#fdd7ad"></path>
                                  <path id="Shape"
                                        d="m35 55v2.47c-.63.06-1.29.11-2 .16v-2.63c0-.5522847.4477153-1 1-1s1 .4477153 1 1z"
                                        fill="#894B9D" data-original="#894b9d"></path>
                                  <path id="Shape" d="m36 28s0 6-3 10-8 4-11 4-8 0-11-4-3-10-3-10z" fill="#A56A43"
                                        data-original="#a56a43"></path>
                                  <path id="Shape"
                                        d="m37 16c0 3.922.022 4.264-.05 4.98-.1724299 2.3572652-.4896957 4.7016921-.95 7.02 0 0-3 1-4 3-.3665582.8466354-1.0992132 1.4798849-1.99 1.72-3.55.92-4.23-.72-8.01-.72s-4.45 1.64-8.01.72c-.8907868-.2401151-1.6234418-.8733646-1.99-1.72-1-2-4-3-4-3-.4603043-2.3183079-.77757005-4.6627348-.95-7.02-.068-.68-.05-.69-.05-4.98.07641751-3.1214888 1.56171783-6.04061866 4.04-7.94h21.92c2.4782822 1.89938134 3.9635825 4.8185112 4.04 7.94z"
                                        fill="#FDD7AD" data-original="#fdd7ad"></path>
                                  <path id="Shape"
                                        d="m23 30h-2c-.5522847 0-1-.4477153-1-1s.4477153-1 1-1h2c.5522847 0 1 .4477153 1 1s-.4477153 1-1 1z"
                                        fill="#F09372" data-original="#f09372"></path>
                                  <circle id="Oval" cx="15" cy="24" fill="#ECF0F1" r="3" data-original="#ecf0f1"></circle>
                                  <circle id="Oval" cx="15.5" cy="24" fill="#35495E" r="1.5" data-original="#35495e">
                                </circle>
                                  <circle id="Oval" cx="29" cy="24" fill="#ECF0F1" r="3" data-original="#ecf0f1"></circle>
                                  <circle id="Oval" cx="28.5" cy="24" fill="#35495E" r="1.5" data-original="#35495e">
                                </circle>
                                  <path id="Shape"
                                        d="m11 20c-.4015264-.0024592-.7626425-.2448476-.9170167-.6155201-.15437423-.3706725-.0720646-.7977347.2090167-1.0844799 2.1952327-2.0764772 5.4575378-2.5517799 8.154-1.188.4942948.2468713.6948713.8477051.448 1.342-.2468713.4942948-.8477052.6948713-1.342.448-1.9280745-.9802775-4.2628431-.6545515-5.849.816-.1882903.1825449-.4407547.283818-.703.282z"
                                        fill="#805333" data-original="#805333"></path>
                                  <path id="Shape"
                                        d="m33 20c-.2623399-.0011046-.5137394-.1052558-.7-.29-1.585988-1.4710486-3.9212809-1.7964484-5.849-.815-.4942948.2468713-1.0951287.0462948-1.342-.448-.2468712-.4942949-.0462948-1.0951287.448-1.342 2.6963117-1.364702 5.9591747-.8893179 8.154 1.188.2864278.2865085.37169.7175244.2159186 1.0915074-.1557715.373983-.5217944.6170295-.9269186.6154926z"
                                        fill="#805333" data-original="#805333"></path>
                                  <path id="Shape"
                                        d="m11 55v2.63c-.71-.05-1.37-.1-2-.16v-2.47c0-.5522847.44771525-1 1-1 .5522847 0 1 .4477153 1 1z"
                                        fill="#894B9D" data-original="#894b9d"></path>
                                  <path id="Shape"
                                        d="m24 36h-4c-.5522847 0-1-.4477153-1-1s.4477153-1 1-1h4c.5522847 0 1 .4477153 1 1s-.4477153 1-1 1z"
                                        fill="#F9C795" data-original="#f9c795"></path>
                                  <path id="Shape"
                                        d="m37 16v1.33c-1.57-.55-2.53-1.12-4-3.33-.8742143-1.487023-1.9893954-2.8184816-3.3-3.94h-15.4c-1.3106046 1.1215184-2.4257857 2.452977-3.3 3.94-1.47 2.21-2.43 2.78-4 3.33v-1.33c.07641751-3.1214888 1.56171783-6.04061866 4.04-7.94h21.92c2.4782822 1.89938134 3.9635825 4.8185112 4.04 7.94z"
                                        fill="#805333" data-original="#805333"></path>
                                  <path id="Shape"
                                        d="m13 4s2-4 9-4 10 2 10 2-2 1-2 2c0 0 3 0 4 1 0 0-1 0-1 2v1c-1 2-6 3-11 3s-10-1-11-3c-.807744-1.9184437-.807744-4.0815563 0-6 0 0 1 2 2 2z"
                                        fill="#A56A43" data-original="#a56a43"></path>
                              </g>
                            </g>
                          </g>
                        </svg>