<svg xmlns="http://www.w3.org/2000/svg" version="1.1" xmlns:xlink="http://www.w3.org/1999/xlink"
     xmlns:svgjs="http://svgjs.com/svgjs" width="512" height="512" x="0" y="0" viewBox="0 0 512 512"
     style="enable-background:new 0 0 512 512" xml:space="preserve">
                <g>
                  <g xmlns="http://www.w3.org/2000/svg">
                    <path d="m512 256c0 140.918-112.835 254.779-253.748 255.991-46.334.398-89.854-11.513-127.487-32.662-3.054-1.716-4.991-4.871-5.232-8.366-3.792-55.004-43.503-100.128-95.847-112.086-5.833-1.332-10.599-5.517-12.744-11.102-10.944-28.49-16.942-59.432-16.942-91.775 0-141.787 114.115-255.947 255.902-256 141.43-.053 256.098 114.582 256.098 256z"
                          fill="#F44545" data-original="#f44545"></path>
                      <path d="m467 231c0 102.725-83.275 186-186 186s-186-83.275-186-186 83.275-186 186-186 186 83.275 186 186z"
                            fill="#FB5858" data-original="#fb5858"></path>
                      <path d="m401.977 213.63-2.494 2.494c-5.288 5.288-13.542 5.802-19.407 1.543 4.259 5.865 3.745 14.119-1.543 19.407l-2.495 2.494c-5.288 5.288-13.542 5.802-19.407 1.543 4.259 5.865 3.745 14.119-1.543 19.407l-2.494 2.494c-5.288 5.288-13.542 5.802-19.406 1.543 4.259 5.865 3.745 14.119-1.543 19.407l-2.494 2.494c-5.858 5.858-15.355 5.858-21.213 0l-54.651-54.651c-5.858-5.858-5.858-15.355 0-21.213l2.494-2.494c5.288-5.288 13.542-5.802 19.407-1.543-4.259-5.865-3.745-14.119 1.543-19.407l2.494-2.494c5.288-5.288 13.542-5.802 19.407-1.543-4.259-5.865-3.745-14.119 1.543-19.407l2.494-2.494c5.288-5.288 13.542-5.802 19.407-1.543-4.259-5.865-3.745-14.119 1.543-19.407l2.495-2.494c5.858-5.858 15.355-5.858 21.213 0l54.651 54.651c5.857 5.858 5.857 15.356-.001 21.213z"
                            fill="#E09380" data-original="#e09380"></path>
                      <path d="m280.612 244.907 22.917 22.917-158.841 158.842-83.767-83.767 97.987-97.987c2.618-2.618 4.81-5.63 6.496-8.927l38.65-75.583c5.291-10.346 15.316-17.442 26.833-18.993l105.833-14.25 16.725 16.725-70.472 70.472 14.094 14.094z"
                            fill="#FFBEAA" data-original="#ffbeaa"></path>
                      <path d="m353.445 143.885-3.111 3.111-105.15 14.158c-11.516 1.551-21.542 8.647-26.832 18.993l-38.65 75.583c-1.686 3.297-3.878 6.309-6.496 8.927l-95.264 95.263-17.021-17.021 97.987-97.987c2.618-2.618 4.81-5.63 6.496-8.927l38.65-75.583c5.291-10.346 15.316-17.442 26.833-18.993l105.833-14.25z"
                            fill="#FAA68E" data-original="#faa68e"></path>
                      <path d="m447.523 165.268-128.811 55.492c-.114-.154-.228-.309-.343-.463-23.739-31.968-40.239-68.717-48.353-107.699l-10.157-48.79c-.424-2.039.644-4.095 2.557-4.919l120.594-51.952c2.547-1.097 5.46.417 6.025 3.132l9.792 47.037c8.115 38.982 24.614 75.732 48.353 107.699.114.154.228.308.343.463z"
                            fill="#71892E" data-original="#71892e"></path>
                      <path d="m453.72 162.598-12.399 5.342c-23.832-32.333-40.745-70.172-48.931-109.494l-9.245-44.408-116.485 50.181 9.792 47.039c7.866 37.785 24.187 74.135 47.196 105.12.423.57.844 1.141 1.262 1.713l-12.399 5.342c-23.832-32.332-40.745-70.173-48.931-109.494l-10.157-48.79c-1.056-5.074 1.632-10.245 6.392-12.296l120.593-51.954c3.035-1.308 6.457-1.183 9.389.341 2.267 1.178 4.017 3.076 5.006 5.372.291.674.515 1.383.668 2.117l9.792 47.037c7.866 37.785 24.187 74.135 47.196 105.12.423.569.843 1.14 1.261 1.712z"
                            fill="#9BCF1B" data-original="#9bcf1b"></path>
                      <path d="m457.717 105.14c-7.713 37.75-7.388 76.686.935 114.277.278 1.256-5.76 4.326-5.76 4.326h-24.577l-10.294-6.7-56.48 1.223-15.393 5.478h-26.76c-.044-.187-.087-.374-.132-.561-9.154-38.752-9.767-79.03-1.796-118.042l9.976-48.828c.417-2.04 2.212-3.505 4.294-3.505h131.31c2.773 0 4.849 2.543 4.294 5.26z"
                            fill="#7FA32F" data-original="#7fa32f"></path>
                      <path d="m474 57.174c0 .734-.074 1.474-.224 2.209l-9.618 47.073c-7.106 34.781-7.163 71.276-.222 106.134.006.03.012.061.018.093 1.146 5.716-3.211 11.06-9.041 11.06h-2.021c-9.094-39.123-9.656-80.567-1.617-119.92l9.08-44.442h-126.834l-9.618 47.075c-7.866 38.504-7.094 79.111 2.248 117.27-.006.008-.007.009-.013.017h-13.501c-9.095-39.123-9.656-80.568-1.617-119.92l9.977-48.827c1.042-5.101 5.529-8.764 10.735-8.764h131.013c2.932 0 5.817 1.037 7.917 3.083 2.174 2.118 3.338 4.945 3.338 7.859z"
                            fill="#B9E746" data-original="#b9e746"></path>
                      <path d="m428.315 223.743h-82.166c-.567-2.725 3.61-5.447 2.968-8.165-6.18-26.16-7.953-53.537-5.293-80.372h78.661c-.637 8.066-.955 16.164-.955 24.261 0 21.613 2.264 43.226 6.785 64.276z"
                            fill="#9BCF1B" data-original="#9bcf1b"></path>
                      <path d="m428.086 126.441c0 24.207-19.623 43.83-43.83 43.83s-43.83-19.623-43.83-43.83 19.623-43.83 43.83-43.83 43.83 19.623 43.83 43.83z"
                            fill="#B9E746" data-original="#b9e746"></path>
                      <path d="m410.554 126.441c0 14.524-11.774 26.298-26.298 26.298s-26.298-11.774-26.298-26.298 11.774-26.298 26.298-26.298 26.298 11.774 26.298 26.298z"
                            fill="#CAED73" data-original="#caed73"></path>
                      <path d="m410.554 126.441c0 3.06-.523 5.998-1.484 8.729-2.731.961-5.669 1.484-8.729 1.484-14.524 0-26.298-11.774-26.298-26.298 0-3.06.523-5.998 1.484-8.729 2.731-.961 5.669-1.484 8.729-1.484 14.524 0 26.298 11.774 26.298 26.298z"
                            fill="#DBF3A0" data-original="#dbf3a0"></path>
                      <path d="m399.607 171.747-106.808 106.808c-5.858 5.858-15.355 5.858-21.213 0l-2.494-2.494c-5.858-5.858-5.858-15.355 0-21.213l106.808-106.808c5.858-5.858 15.355-5.858 21.213 0l2.495 2.494c5.856 5.858 5.856 15.355-.001 21.213z"
                            fill="#FFBEAA" data-original="#ffbeaa"></path>
                      <path d="m312.863 232.106h-54.383v-50.043h28.812c3.07 6.166 6.364 12.218 9.871 18.137l-7.505 7.505c-3.674 3.674-3.674 9.63 0 13.304 3.674 3.674 9.63 3.674 13.304 0l4.584-4.584c1.63 2.363 3.296 4.699 4.997 7.007z"
                            fill="#FFBEAA" data-original="#ffbeaa"></path>
                      <path d="m400.564 158.936-5.198 5.198c-2.929 2.929-7.678 2.929-10.607 0l-1.247-1.247c-2.929-2.929-2.929-7.678 0-10.607l5.198-5.198c2.929-2.929 7.678-2.929 10.606 0l1.247 1.247c2.929 2.93 2.929 7.678.001 10.607z"
                            fill="#FFF5F5" data-original="#fff5f5"></path>
                      <path d="m50.372 328.439 56.149-56.149c1.953-1.953 5.118-1.953 7.071 0l30.247 30.247c1.953 1.953 1.953 5.118 0 7.071l-56.149 56.149c-1.953 1.953-5.118 1.953-7.071 0l-30.247-30.247c-1.953-1.953-1.953-5.118 0-7.071z"
                            fill="#DCE6EB" data-original="#dce6eb"></path>
                      <path d="m75.434 353.502 56.149-56.149c1.953-1.953 5.118-1.953 7.071 0l76.642 76.642c1.953 1.953 1.953 5.118 0 7.071l-56.149 56.149c-1.953 1.953-5.118 1.953-7.071 0l-76.642-76.642c-1.952-1.953-1.952-5.119 0-7.071z"
                            fill="#FFF5F5" data-original="#fff5f5"></path>
                      <path d="m198.841 404.954c1.953 1.953 1.953 5.118 0 7.071l-67.581 67.581c-52.046-29.097-92.889-75.838-114.432-132.128l58.733-58.733c1.953-1.953 5.119-1.953 7.071 0z"
                            fill="#2E5AAC" data-original="#2e5aac"></path>
                      <path d="m38.186 390.576c-8.405-13.574-15.576-27.992-21.357-43.097l58.733-58.733c1.953-1.953 5.119-1.953 7.071 0l28.692 28.692z"
                            fill="#274C91" data-original="#274c91"></path>
                      <path d="m174.206 415.881c-3.273 3.273-8.581 3.273-11.854 0s-3.273-8.581 0-11.854 8.58-3.273 11.854 0 3.274 8.581 0 11.854z"
                            fill="#FFB52D" data-original="#ffb52d"></path>
                  </g>
                </g>
              </svg>