<?xml version="1.0" encoding="utf-8"?>
<!-- Generator: Adobe Illustrator 24.1.1, SVG Export Plug-In . SVG Version: 6.00 Build 0)  -->
<svg version="1.1" id="Layer_1" xmlns="http://www.w3.org/2000/svg" xmlns:xlink="http://www.w3.org/1999/xlink" x="0px" y="0px"
	 viewBox="0 0 163 88" style="enable-background:new 0 0 163 88;" xml:space="preserve">
<style type="text/css">
	.st0{fill:#FFFFFF;}
	.st1{fill:#510C76;}
	.st2{fill:#EB6B24;}
	.st3{fill:#FFFFFF;stroke:#FFFFFF;stroke-miterlimit:10;}
</style>
<path class="st0" d="M147.2,12.5L143,65.8c-0.4,5.4-4.9,9.6-10.3,9.7h-87c-21.5,0-23-8.3-21.9-24l3.5-39L147.2,12.5z"/>
<path class="st1" d="M60.8,12.5l-4.5,63H34.5c-21.5,0-23-8.3-21.9-24l3.5-39H60.8z"/>
<path class="st1" d="M65.9,38l-0.8,11.5c-0.4,4.2,2.7,7.9,6.9,8.3c0.2,0,0.5,0,0.7,0h3.5c4.6-0.1,8.4-3.7,8.7-8.3l1.3-19.8H74.7
	C70,29.8,66.2,33.4,65.9,38z M77.9,49.5c-0.1,0.6-0.6,1.1-1.2,1.1h-3.5c-0.6,0-1-0.4-1-1c0,0,0-0.1,0-0.1L73,38
	c0.1-0.6,0.6-1.1,1.2-1.1h4.6L77.9,49.5z"/>
<path class="st1" d="M130.8,29.7h-11.7l-1.3,19.8c0,0.8,0,1.5,0.2,2.2h-0.5c-3.7,0-5.5-2.6-5.2-7.4l0.6-8.4l0,0l0.2-3
	c0.1-1.7-1.2-3.1-2.9-3.3c-0.1,0-0.1,0-0.2,0h-4l-0.2,3.3l-0.5,8v0.5v0.8l-0.1,0.9v0.4V44v0.3l0,0l-0.1,2c-0.1,1.6,0,3.2,0.3,4.8
	c-0.9,0.5-1.8,0.7-2.8,0.7c-3.2,0-7.3-1-7.3-6.6L95.9,33c0.2-1.7-1.1-3.2-2.8-3.3c-0.1,0-0.2,0-0.2,0h-4L88.7,33l-1.9,28.7
	c-0.1,1.8-0.4,6.3-0.4,6.3h3.9c1.8,0,3.4-1.5,3.5-3.3l0.4-7c1.1,0.6,3.9,0.9,5.6,0.9c2.8,0,5.4-1.2,7.2-3.3c1.7,2.1,4.3,3.3,7.7,3.3
	c2.3,0,4.5-0.7,6.3-2c0.7,0.7,1.5,1.2,2.5,1.5l0,0c0.6,0.2,1.3,0.2,1.9,0.2h3.5c4.6-0.1,8.4-3.7,8.8-8.3l0.8-11.9
	c0.4-4.2-2.7-7.9-6.9-8.3C131.3,29.7,131,29.7,130.8,29.7z M130.6,49.9c0,0.6-0.6,1.1-1.2,1.1h-3.5c-0.6,0-1-0.4-1-1
	c0,0,0-0.1,0-0.1l0.8-13h4.6c0.6,0,1,0.4,1,1c0,0,0,0.1,0,0.1L130.6,49.9z"/>
<path class="st1" d="M70,22.9l-0.1,1.6c-0.1,1.5,1,2.9,2.5,3c0.1,0,0.2,0,0.2,0h1.3c1.7,0,3-1.3,3.2-3l0.3-4.6h-4.3
	C71.5,19.9,70.1,21.2,70,22.9z"/>
<path class="st1" d="M78.1,22.9L78,24.5c-0.1,1.5,1,2.9,2.6,3c0.1,0,0.1,0,0.2,0H82c1.7,0,3-1.3,3.2-3l0.3-4.6h-4.2
	C79.6,19.9,78.2,21.2,78.1,22.9z"/>
<path class="st2" d="M91.9,27.4h1.6c1.5,0.1,2.9-1,3-2.6c0,0,0-0.1,0-0.1l0.1-1.3c0.1-1.7-0.8-3.5-2.4-3.5l-4.9,0l-0.3,4.2
	C88.9,25.8,90.2,27.3,91.9,27.4z"/>
<path class="st1" d="M95.6,63.4L95.5,65c-0.1,1.5,1,2.9,2.5,3c0.1,0,0.2,0,0.3,0h1.3c1.7,0,3-1.3,3.2-3l0.3-4.6h-4.2
	C97.1,60.4,95.7,61.8,95.6,63.4z"/>
<path class="st1" d="M104.2,63.4l-0.1,1.6c-0.1,1.5,1,2.9,2.5,3c0.1,0,0.2,0,0.2,0h1.3c1.7,0,3-1.3,3.2-3l0.3-4.6h-4.2
	C105.7,60.4,104.3,61.8,104.2,63.4z"/>
<path class="st1" d="M109.4,27.3h-0.9c-0.2,0-0.2-0.1-0.2-0.2l0.3-3.8c0-0.3,0-0.6,0-0.9c0-0.4-0.2-0.6-0.6-0.6s-0.7,0-1,0
	c-0.1,0-0.1,0-0.1,0.1c0.1,0.6,0.1,1.2,0,1.7c-0.1,0.8-0.1,1.7-0.2,2.5c0,0.3,0,0.6-0.1,0.9s-0.1,0.2-0.3,0.2h-1.8
	c-0.2,0-0.2,0-0.2-0.2c0.1-1.3,0.2-2.6,0.3-3.9c0-0.3,0-0.6,0-0.9c0-0.3-0.2-0.5-0.4-0.5c0,0-0.1,0-0.1,0c-0.3,0-0.7,0-1,0
	c-0.1,0-0.1,0-0.1,0.1c-0.1,0.8-0.1,1.6-0.2,2.4s-0.1,1.8-0.2,2.7c0,0.2-0.1,0.3-0.3,0.3h-1.8c-0.2,0-0.3-0.1-0.2-0.3
	c0.1-1.3,0.2-2.7,0.3-4c0.1-0.9,0.1-1.8,0.2-2.7c0-0.2,0.1-0.2,0.3-0.3c0.5-0.1,0.9-0.1,1.4-0.2c0.8-0.1,1.5-0.1,2.3,0
	c0.4,0,0.9,0.2,1.3,0.3c0.1,0,0.1,0,0.2,0c0.8-0.3,1.7-0.4,2.5-0.4c0.4,0,0.7,0.1,1.1,0.2c0.6,0.2,1.1,0.7,1.2,1.3
	c0.1,0.5,0.1,1.1,0,1.6l-0.2,3.3c0,0.3,0,0.6-0.1,0.9s-0.1,0.2-0.3,0.2L109.4,27.3z"/>
<path class="st1" d="M123.1,24.3h-2c-0.1,0-0.2,0-0.2,0.2c0,0.6,0.2,0.9,0.8,0.9c0.5,0,0.9,0,1.4,0h1.4c0.2,0,0.3,0,0.3,0.3
	c0,0.4,0,0.8-0.1,1.3c0,0.1-0.1,0.2-0.2,0.2c0,0,0,0,0,0c-0.7,0.1-1.3,0.2-2,0.2c-0.6,0-1.2,0-1.8,0c-0.4,0-0.8-0.2-1.2-0.4
	c-0.4-0.3-0.7-0.7-0.7-1.2c-0.1-0.7-0.1-1.4,0-2.1c0-0.6,0.1-1.2,0.3-1.8c0.1-0.6,0.5-1.2,1.1-1.5c0.3-0.2,0.7-0.3,1.1-0.4
	c0.9-0.1,1.8-0.1,2.6,0c0.4,0.1,0.8,0.2,1.1,0.5c0.3,0.3,0.6,0.8,0.6,1.3c0.1,0.8,0.1,1.6,0,2.4c0,0.1-0.1,0.2-0.2,0.2H125
	L123.1,24.3z M121.1,22.9h1.8c0.5,0,0.5,0,0.4-0.5c0-0.3-0.3-0.5-0.6-0.6c-0.2,0-0.5,0-0.7,0c-0.4,0-0.7,0.2-0.8,0.6
	C121.1,22.5,121.1,22.7,121.1,22.9z"/>
<path class="st1" d="M115.9,24.3c-0.7,0-1.3,0-1.9,0c-0.2,0-0.2,0.1-0.2,0.2c0,0.6,0.2,0.8,0.8,0.9c0.2,0,0.4,0,0.5,0h2.3
	c0.2,0,0.3,0,0.2,0.2c0,0.4-0.1,0.9-0.1,1.3c0,0.1-0.1,0.2-0.2,0.2c0,0,0,0,0,0c-0.6,0.1-1.3,0.1-1.9,0.2c-0.7,0-1.4,0-2.2-0.1
	c-0.3,0-0.6-0.2-0.9-0.3c-0.4-0.3-0.7-0.7-0.8-1.3c-0.1-0.8-0.1-1.5,0-2.3c0-0.5,0.1-1,0.2-1.5c0.1-0.7,0.5-1.3,1.1-1.6
	c0.3-0.2,0.7-0.3,1.1-0.3c0.9-0.1,1.8-0.1,2.7,0c0.4,0.1,0.8,0.2,1.1,0.5c0.4,0.3,0.6,0.8,0.6,1.3c0,0.6,0,1.2,0,1.7
	c0,0.2,0,0.4,0,0.5c0,0.1-0.1,0.3-0.3,0.3L115.9,24.3L115.9,24.3z M116.1,22.9c0-0.2,0-0.4,0-0.6c0-0.3-0.3-0.5-0.5-0.5
	c-0.2,0-0.5,0-0.7,0c-0.6,0-0.9,0.5-0.9,1.1L116.1,22.9z"/>
<path class="st1" d="M135.1,21.7h-1.3c-0.2,0-0.3-0.1-0.2-0.2c0-0.4,0.1-0.9,0.1-1.3c0-0.1,0.1-0.2,0.2-0.2c1-0.2,2.1-0.3,3.1-0.2
	c0.5,0,0.9,0.1,1.4,0.2c0.7,0.2,1.2,0.9,1.2,1.6c0,0.9-0.1,1.8-0.2,2.8l-0.1,2.1c0,0.4-0.1,0.5-0.5,0.6c-1.3,0.2-2.6,0.3-3.9,0.2
	c-0.3,0-0.7-0.1-1-0.1c-0.5-0.1-0.9-0.6-1-1.1c-0.1-0.7-0.1-1.4,0.2-2c0.2-0.6,0.8-1.1,1.5-1.1c0.4-0.1,0.7-0.1,1.1-0.1
	c0.5,0,1,0,1.5,0c0.1,0,0.1,0,0.1-0.1v-0.1c0-0.5-0.2-0.8-0.8-0.8L135.1,21.7z M137.1,24.1c-0.5,0-1,0-1.4,0c-0.3,0-0.6,0.2-0.6,0.5
	c0,0.1,0,0.2,0,0.3c0,0.3,0.2,0.5,0.4,0.5c0,0,0,0,0.1,0c0.5,0,1,0,1.4-0.1c0,0,0.1,0,0.1-0.1C137,24.9,137,24.5,137.1,24.1
	L137.1,24.1z"/>
<path class="st1" d="M129.1,25.3h3c0.1,0,0.1,0.1,0.1,0.2c0,0.5-0.1,1-0.1,1.5c0,0.2-0.1,0.2-0.3,0.2H126c-0.3,0-0.3-0.1-0.3-0.3
	s0-0.7,0.1-1c0-0.1,0.1-0.2,0.1-0.3l2.8-3.3l0.5-0.6h-2.7c-0.3,0-0.3,0-0.3-0.3l0.1-1.3c0-0.2,0.1-0.3,0.3-0.3h5.6
	c0.2,0,0.3,0.1,0.2,0.3c0,0.4,0,0.7-0.1,1.1c0,0.1,0,0.2-0.1,0.3c-1,1.2-2,2.5-3,3.7L129.1,25.3z"/>
<path class="st2" d="M117.1,60.8c-1.8,0.1-3.2,1.5-3.3,3.3l-0.3,3.9h20c1.8-0.1,3.2-1.5,3.3-3.3l0.3-3.9H117.1z"/>
<path class="st3" d="M130.4,77H34.5c-10.1,0-16.2-1.7-19.9-5.6c-4.4-4.8-4.3-12.3-3.8-20.2l3.6-40.7l134.7,0.1l-4.3,53
	C144.1,71.1,137.9,76.8,130.4,77z M17.7,14l-3.3,37.5C13.8,60,14.1,65.6,17.2,69c2.9,3.1,8.4,4.5,17.3,4.5h95.9
	c5.7-0.2,10.4-4.5,11.1-10.2l4-49.2L17.7,14z"/>
<path class="st0" d="M40.8,58H29.4c-1.7,0-3-1.3-3-3c0-0.1,0-0.2,0-0.3l1.6-22c0.2-1.8,1.7-3.2,3.5-3.3h11.3c1.7,0,3,1.3,3,3
	c0,0.1,0,0.2,0,0.3l-1.6,22C44.1,56.5,42.6,58,40.8,58z M31.3,31.7c-0.6,0-1,0.4-1.1,1l-1.6,22c0,0.6,0.4,1,1,1H41
	c0.6,0,1-0.4,1.1-1l1.6-22c0-0.6-0.4-1-1-1H31.3z"/>
<polygon class="st0" points="43.7,51 43.5,53.2 27.7,53.2 27.9,51 "/>
</svg>
