<svg xmlns="http://www.w3.org/2000/svg" version="1.1" xmlns:xlink="http://www.w3.org/1999/xlink"
     xmlns:svgjs="http://svgjs.com/svgjs" width="512" height="512" x="0" y="0"
     viewBox="0 0 511 511.99907" style="enable-background:new 0 0 512 512" xml:space="preserve">
                          <g>
                            <path xmlns="http://www.w3.org/2000/svg"
                                  d="m80.027344 468.589844c2.339844 8.625 1.164062 17.640625-3.3125 25.398437-1.894532 3.273438-4.28125 6.15625-7.058594 8.582031h311.675781c-2.777343-2.425781-5.164062-5.308593-7.058593-8.582031-4.476563-7.757812-5.652344-16.773437-3.3125-25.398437l8.035156-29.625h-44.917969v-94.660156c0-1.503907-.046875-2.992188-.128906-4.476563 36.382812-.324219 70.519531-18.15625 91.347656-47.332031-4.011719 1.75-8.363281 2.679687-12.84375 2.679687-8.328125 0-16.121094-3.207031-21.945313-9.03125-5.195312-5.195312-8.363281-12.128906-8.925781-19.53125-15.101562 18.671875-40.589843 27.695313-65.324219 20.871094-.578124-.160156-4.46875-2.460937-10.253906-5.628906-17.929687 12.160156-39.585937 19.28125-62.890625 19.28125h-33.242187c-23.609375 0-45.527344-7.308594-63.59375-19.761719-17.964844 15.191406-29.363282 37.738281-29.363282 62.929688v94.660156h-44.921874zm133.175781-41.941406c2.578125-6.929688 7.601563-12.71875 14.148437-16.308594l.109376-.058594 19.375-18.023438c1.628906-1.527343 3.75-2.367187 5.976562-2.367187 2.441406 0 4.703125.980469 6.375 2.757813l1.816406 1.941406c3.292969 3.511718 3.113282 9.050781-.398437 12.34375l-2.976563 2.792968 1.5.566407 22.648438 8.425781c4.144531 1.539062 6.265625 6.167969 4.722656 10.3125l-.855469 2.308594c-1.164062 3.125-4.1875 5.226562-7.519531 5.226562-.953125 0-1.894531-.167968-2.796875-.503906l-20.867187-7.761719-1.25 3.355469 25.261718 9.394531c2.007813.746094 3.605469 2.230469 4.5 4.179688.890625 1.949219.972656 4.128906.222656 6.136719l-.855468 2.304687c-1.164063 3.128906-4.183594 5.230469-7.519532 5.230469-.953124 0-1.894531-.171875-2.796874-.503906l-25.257813-9.394532-1.25 3.355469 20.867187 7.761719c2.007813.746094 3.605469 2.230468 4.5 4.179687.890626 1.945313.972657 4.125.222657 6.136719l-.855469 2.304688c-1.164062 3.128906-4.183594 5.230468-7.519531 5.230468-.953125 0-1.894531-.171875-2.792969-.507812l-27.589844-10.261719c-16.582031-6.164063-25.167968-24.355469-19.144531-40.554687zm0 0"
                                  fill="#D5E962" data-original="#d5e962"></path>
                              <path xmlns="http://www.w3.org/2000/svg"
                                    d="m243.113281 301.136719h-33.242187c-7.046875 0-13.9375-.65625-20.625-1.902344 3.8125 16.886719 19.058594 29.511719 37.300781 29.511719 18.246094 0 33.5-12.636719 37.304687-29.53125-6.722656 1.257812-13.652343 1.921875-20.738281 1.921875zm0 0"
                                    fill="#FFC987" data-original="#ffc987"></path>
                              <path xmlns="http://www.w3.org/2000/svg"
                                    d="m213.492188 301.136719h-3.621094c-7.046875 0-13.9375-.65625-20.625-1.902344 3.8125 16.886719 19.058594 29.511719 37.300781 29.511719 4.148437 0 8.140625-.660156 11.878906-1.867188-12.082031-3.902344-21.503906-13.585937-24.933593-25.742187zm0 0"
                                    fill="#E5B579" data-original="#e5b579"></path>
                              <path xmlns="http://www.w3.org/2000/svg"
                                    d="m98.070312 190.105469v-45.59375c0-.074219 0-.148438 0-.222657h-10.089843c-14.539063 0-26.4375 11.816407-26.4375 26.257813v21.953125c0 14.441406 11.898437 26.257812 26.4375 26.257812h13.871093c-2.464843-9.140624-3.78125-18.746093-3.78125-28.652343zm0 0"
                                    fill="#FFC987" data-original="#ffc987"></path>
                              <path xmlns="http://www.w3.org/2000/svg"
                                    d="m364.996094 144.289062h-10.09375c0 .074219.003906.148438.003906.222657v45.59375c0 9.90625-1.320312 19.511719-3.78125 28.65625h13.871094c14.539062 0 26.4375-11.816407 26.4375-26.261719v-21.953125c0-14.441406-11.898438-26.257813-26.4375-26.257813zm0 0"
                                    fill="#FFC987" data-original="#ffc987"></path>
                              <path xmlns="http://www.w3.org/2000/svg"
                                    d="m285.269531 59.359375c-.171875-.347656-.339843-.695313-.503906-1.046875l-.878906-1.828125-1 1.027344c-20.703125 21.347656-48.855469 46.796875-65.398438 46.796875-3.695312 0-6.257812-1.097656-7.613281-3.257813-3.765625-6 2.082031-18.28125 2.140625-18.40625l-1.558594-1.1875c-.257812.226563-26.074219 22.585938-44.238281 22.585938-2.367188 0-4.523438-.386719-6.40625-1.148438-6.6875-2.707031-10.34375-6.199219-10.875-10.382812-1.085938-8.566407 10.972656-17.601563 11.09375-17.691407l-1.097656-1.667968c-.347656.199218-30.144532 17.402344-50.984375 22.214844-6.980469 14.960937-10.878907 31.601562-10.878907 49.144531v45.59375c0 61.875 50.496094 112.03125 112.800782 112.03125h33.242187c62.292969 0 112.792969-50.15625 112.792969-112.03125 0 0 0-43.980469 0-45.59375 0-11.445313-1.664062-22.511719-4.753906-32.976563-29.238282-5.640625-51.375-23.152344-65.882813-52.175781zm0 0"
                                    fill="#FFD5B3" data-original="#ffd5b3"></path>
                              <path xmlns="http://www.w3.org/2000/svg"
                                    d="m128.785156 144.511719c0-24.53125 7.617188-47.3125 20.648438-66.179688-10.5625 5.523438-27.917969 13.902344-41.484375 17.035157-6.980469 14.960937-10.878907 31.601562-10.878907 49.144531v45.59375c0 6.351562.539063 12.570312 1.5625 18.632812.003907-.011719.007813-.019531.015626-.027343 6.042968-4.449219 13.535156-7.085938 21.652343-7.085938 3.183594 0 6.269531.410156 9.210938 1.171875-.472657-4.167969-.722657-8.398437-.722657-12.691406-.003906 0-.003906-43.980469-.003906-45.59375zm0 0"
                                    fill="#E5BFA1" data-original="#e5bfa1"></path>
                              <path xmlns="http://www.w3.org/2000/svg"
                                    d="m150.867188 256.691406c-4.355469 6.726563-10.925782 11.925782-18.699219 14.585938-.28125-.265625-.566407-.527344-.859375-.789063 20.308594 19.585938 48.011718 31.648438 78.5625 31.648438h31.714844c-37.191407 0-70.171876-17.875-90.71875-45.445313zm0 0"
                                    fill="#E5BFA1" data-original="#e5bfa1"></path>
                              <g xmlns="http://www.w3.org/2000/svg" fill="#775436">
                              <path
                                      d="m160.835938 174.128906c-4.144532 0-7.5-3.359375-7.5-7.5v-8.617187c0-4.144531 3.355468-7.5 7.5-7.5 4.140624 0 7.5 3.355469 7.5 7.5v8.617187c0 4.140625-3.359376 7.5-7.5 7.5zm0 0"
                                      fill="#775436" data-original="#775436"></path>
                                  <path
                                          d="m292.140625 174.128906c-4.140625 0-7.5-3.359375-7.5-7.5v-8.617187c0-4.144531 3.359375-7.5 7.5-7.5 4.144531 0 7.5 3.355469 7.5 7.5v8.617187c0 4.140625-3.355469 7.5-7.5 7.5zm0 0"
                                          fill="#775436" data-original="#775436"></path>
                                  <path
                                          d="m233.828125 193.742188h-9.53125c-6.972656 0-12.648437-5.675782-12.648437-12.652344v-15.179688c0-4.140625 3.355468-7.5 7.5-7.5 4.140624 0 7.5 3.359375 7.5 7.5v12.832032h7.179687c4.144531 0 7.5 3.359374 7.5 7.5 0 4.144531-3.355469 7.5-7.5 7.5zm0 0"
                                          fill="#775436" data-original="#775436"></path>
                            </g>
                              <path xmlns="http://www.w3.org/2000/svg"
                                    d="m120.300781 201.625c-8.121093 0-15.613281 2.636719-21.65625 7.085938 4.117188 24.453124 16.203125 46.207031 33.523438 62.566406 14.195312-4.855469 24.390625-18.167969 24.390625-33.839844 0-19.777344-16.234375-35.8125-36.257813-35.8125zm0 0"
                                    fill="#FFB98A" data-original="#ffb98a"></path>
                              <path xmlns="http://www.w3.org/2000/svg"
                                    d="m332.675781 201.625c-20.023437 0-36.257812 16.035156-36.257812 35.8125 0 15.675781 10.199219 28.984375 24.390625 33.839844 17.320312-16.359375 29.40625-38.113282 33.523437-62.5625-6.042969-4.453125-13.539062-7.089844-21.65625-7.089844zm0 0"
                                    fill="#FFB98A" data-original="#ffb98a"></path>
                              <path xmlns="http://www.w3.org/2000/svg"
                                    d="m226.488281 271.734375c-23.519531 0-42.652343-20.789063-42.652343-46.34375 0-3.320313 2.726562-6.015625 6.09375-6.015625h73.117187c3.367187 0 6.09375 2.691406 6.09375 6.015625 0 25.554687-19.132813 46.34375-42.652344 46.34375zm0 0"
                                    fill="#FB8276" data-original="#fb8276"></path>
                              <path xmlns="http://www.w3.org/2000/svg"
                                    d="m215.582031 225.390625c0-3.320313 2.730469-6.015625 6.09375-6.015625h-31.746093c-3.367188 0-6.09375 2.691406-6.09375 6.015625 0 25.554687 19.132812 46.34375 42.652343 46.34375 5.609375 0 10.960938-1.195313 15.871094-3.339844-15.675781-6.859375-26.777344-23.542969-26.777344-43.003906zm0 0"
                                    fill="#E1756A" data-original="#e1756a"></path>
                              <path xmlns="http://www.w3.org/2000/svg"
                                    d="m354.601562 70.714844c-10.964843-21.714844-28.605468-38.480469-52.617187-50.054688-117.898437-60.628906-204.1875 28.304688-213.339844 60.808594-11.328125 40.234375 70.792969-7.453125 70.792969-7.453125s-26.03125 19.265625 0 29.804687c18.40625 7.449219 51.679688-21.605468 51.679688-21.605468s-11.144532 23.097656 6.371093 23.097656c16.785157 0 44.855469-25.179688 66.117188-47.101562.257812.53125.503906 1.0625.773437 1.597656 16.234375 32.480468 41.929688 50.695312 76.375 54.140625.132813.011719.269532.019531.402344.019531 1.105469 0 2.171875-.457031 2.972656-1.277344.890625-.921875 1.355469-2.210937 1.261719-3.523437-.523437-7.417969-2.625-22.273438-10.789063-38.453125zm0 0"
                                    fill="#FFC502" data-original="#ffc502"></path>
                              <path xmlns="http://www.w3.org/2000/svg"
                                    d="m119.816406 81.46875c6.4375-22.863281 51.042969-73.648438 117.964844-80.660156-84.035156-8.652344-141.746094 54.410156-149.136719 80.660156-5.652343 20.082031 11.976563 18.257812 31.054688 11.394531-1.242188-2.554687-1.332031-6.253906.117187-11.394531zm0 0"
                                    fill="#E5B102" data-original="#e5b102"></path>
                              <path xmlns="http://www.w3.org/2000/svg"
                                    d="m80.996094 468.328125c5.015625 18.503906-6.101563 37.523437-24.835938 42.480469-18.734375 4.957031-37.988281-6.023438-43.011718-24.527344l-11.441407-42.1875c-5.019531-18.507812 6.097657-37.523438 24.832031-42.484375 18.734376-4.957031 37.988282 6.023437 43.011719 24.527344zm0 0"
                                    fill="#89C947" data-original="#89c947"></path>
                              <path xmlns="http://www.w3.org/2000/svg"
                                    d="m44.859375 486.28125-11.445313-42.1875c-4.378906-16.144531 3.527344-32.679688 18.058594-39.929688-7.445312-3.71875-16.242187-4.851562-24.933594-2.554687-18.734374 4.957031-29.855468 23.976563-24.835937 42.484375l11.445313 42.1875c5.023437 18.503906 24.277343 29.484375 43.011718 24.527344 2.390625-.632813 4.652344-1.496094 6.777344-2.554688-8.601562-4.296875-15.386719-12.050781-18.078125-21.972656zm0 0"
                                    fill="#7BB540" data-original="#7bb540"></path>
                              <path xmlns="http://www.w3.org/2000/svg"
                                    d="m369.996094 468.328125c-5.019532 18.503906 6.097656 37.523437 24.832031 42.480469 18.734375 4.957031 37.988281-6.023438 43.011719-24.527344l11.445312-42.1875c5.019532-18.507812-6.101562-37.527344-24.835937-42.484375-18.730469-4.957031-37.988281 6.023437-43.007813 24.527344zm0 0"
                                    fill="#89C947" data-original="#89c947"></path>
                              <path xmlns="http://www.w3.org/2000/svg"
                                    d="m401.90625 468.328125 11.445312-42.191406c2.683594-9.878907 9.421876-17.609375 17.972657-21.917969-2.152344-1.082031-4.449219-1.964844-6.875-2.609375-18.730469-4.957031-37.988281 6.023437-43.007813 24.527344l-11.449218 42.191406c-5.015626 18.503906 6.101562 37.523437 24.835937 42.480469 8.730469 2.3125 17.574219 1.15625 25.039063-2.605469-14.464844-7.273437-22.328126-23.769531-17.960938-39.875zm0 0"
                                    fill="#7BB540" data-original="#7bb540"></path>
                              <path xmlns="http://www.w3.org/2000/svg"
                                    d="m225.496094 359.308594c-1.972656 0-3.910156-.800782-5.300782-2.199219-1.402343-1.402344-2.199218-3.332031-2.199218-5.300781 0-1.980469.796875-3.910156 2.199218-5.3125 1.390626-1.386719 3.328126-2.1875 5.300782-2.1875 1.96875 0 3.910156.800781 5.296875 2.1875 1.402343 1.402344 2.203125 3.332031 2.203125 5.3125 0 1.96875-.800782 3.898437-2.203125 5.300781-1.386719 1.398437-3.328125 2.199219-5.296875 2.199219zm0 0"
                                    fill="#368C0E" data-original="#368c0e"></path>
                              <path xmlns="http://www.w3.org/2000/svg"
                                    d="m225.496094 385.058594c-1.972656 0-3.910156-.800782-5.300782-2.191406-1.402343-1.398438-2.199218-3.328126-2.199218-5.308594 0-1.972656.796875-3.910156 2.199218-5.300782 1.390626-1.398437 3.328126-2.199218 5.300782-2.199218 1.980468 0 3.910156.800781 5.296875 2.199218 1.402343 1.390626 2.203125 3.328126 2.203125 5.300782 0 1.980468-.800782 3.910156-2.203125 5.308594-1.386719 1.390624-3.328125 2.191406-5.296875 2.191406zm0 0"
                                    fill="#368C0E" data-original="#368c0e"></path>
                              <path xmlns="http://www.w3.org/2000/svg"
                                    d="m213.203125 426.648438c1.933594-5.195313 5.246094-9.753907 9.542969-13.222657-29.097656-4.859375-51.363282-30.492187-51.363282-61.304687 0-14.011719-11.21875-25.367188-25.054687-25.367188-13.839844 0-25.054687 11.355469-25.054687 25.367188 0 60.417968 47.125 109.894531 106.117187 112.742187-13.261719-7.636719-19.574219-23.722656-14.1875-38.214843zm0 0"
                                    fill="#89C947" data-original="#89c947"></path>
                              <path xmlns="http://www.w3.org/2000/svg"
                                    d="m456.867188 252.761719-1.738282-1.738281c-3.523437-3.523438-9.234375-3.523438-12.761718 0l-15.035157 15.035156-1.117187-1.117188 18.351562-18.351562c3.519532-3.523438 3.519532-9.234375 0-12.757813l-1.742187-1.742187c-3.523438-3.523438-9.234375-3.523438-12.757813 0l-18.351562 18.351562-1.121094-1.117187 15.039062-15.039063c3.523438-3.519531 3.523438-9.234375 0-12.757812l-1.738281-1.738282c-3.523437-3.523437-9.234375-3.523437-12.761719 0l-17.039062 17.042969-.042969.039063-.789062-2.351563c-1.710938-5.097656-7.226563-7.839843-12.324219-6.128906l-2.519531.847656c-5.097657 1.710938-7.839844 7.226563-6.128907 12.328125l8.28125 24.996094c.539063 7.433594 3.605469 14.664062 9.230469 20.289062 12.628907 12.628907 33.335938 12.398438 46.25-.515624l20.816407-20.816407c3.523437-3.523437 3.523437-9.234375 0-12.757812zm0 0"
                                    fill="#FFB98A" data-original="#ffb98a"></path>
                              <path xmlns="http://www.w3.org/2000/svg"
                                    d="m271.183594 473.089844.859375-2.308594c1.734375-4.671875-.644531-9.863281-5.3125-11.601562l-19.933594-7.410157.554687-1.484375 24.324219 9.046875c4.667969 1.734375 9.863281-.640625 11.597657-5.3125l.859374-2.304687c1.738282-4.671875-.640624-9.863282-5.3125-11.601563l-24.324218-9.046875.550781-1.480468 19.933594 7.410156c4.667969 1.738281 9.863281-.640625 11.601562-5.308594l.855469-2.308594c1.738281-4.667968-.640625-9.863281-5.308594-11.597656l-22.59375-8.402344-.050781-.019531 1.804687-1.695313c3.925782-3.679687 4.121094-9.839843.441407-13.761718l-1.816407-1.9375c-3.675781-3.917969-9.835937-4.117188-13.757812-.4375l-19.28125 17.9375c-6.535156 3.582031-11.832031 9.378906-14.609375 16.835937-6.222656 16.738281 2.609375 35.472657 19.726563 41.839844l27.589843 10.257813c4.671875 1.738281 9.863281-.640626 11.601563-5.308594zm0 0"
                                    fill="#FFB98A" data-original="#ffb98a"></path>
                          </g>
                        </svg>
