<svg
  xmlns:svg="http://www.w3.org/2000/svg"
  xmlns="http://www.w3.org/2000/svg"
  width="2400"
  height="2400"
  viewBox="0 0 2400 2400"
  version="1.1"
>
  <g>
    <path
      d="m 469.58483,301.93383 c -83.29383,70.1902 -76.27428,200.91425 12.92301,263.42858 l 235.23774,164.86748 c 54.62094,38.28135 126.87225,37.28426 181.7087,-0.70789 191.30792,-132.44542 452.48062,-139.43021 654.16192,1.9191 258.7585,181.35214 321.5411,538.1787 140.1884,796.938 -0.9145,1.3048 -1.9147,2.5086 -2.815,3.7933 -182.1884,255.56 -536.6898,316.8568 -794.16776,136.4022 A 572.58692,572.58692 0 0 1 671.82427,1054.3197 C 688.81943,989.81355 665.10764,921.55306 610.48992,883.27398 L 375.24814,718.40368 C 286.05086,655.88934 160.77939,693.89059 123.21873,796.13911 -55.873418,1283.6074 106.149,1849.0426 551.56007,2161.211 c 15.18454,10.6421 30.59672,20.7363 46.09783,30.5921 525.0668,332.8046 1223.7785,198.0891 1585.9497,-314.3821 0.923,-1.2637 1.8996,-2.489 2.814,-3.7937 372.03,-530.8231 243.318,-1262.77549 -287.5318,-1634.82404 C 1453.4787,-73.365178 866.69498,-32.740257 469.58563,301.9344"
      style="isolation:isolate;mix-blend-mode:multiply;fill:#f7f7f7;stroke-width:0.98536199" />
    <path
      d="m 721.2882,321.30974 c -72.46763,61.06798 -66.3568,174.79547 11.24751,229.18482 l 204.66372,143.43952 c 47.52169,33.30579 110.38317,32.43847 158.09487,-0.61407 166.4409,-115.22664 393.6687,-121.30233 569.1366,1.67515 225.1295,157.78308 279.7502,468.23204 121.9682,693.35994 -0.7956,1.1354 -1.6678,2.1857 -2.4488,3.3002 -158.5088,222.3431 -466.9366,275.6716 -690.9486,118.6718 A 498.16747,498.16747 0 0 1 897.24233,975.90816 C 912.02909,919.78593 891.39861,860.39689 843.87691,827.09109 L 639.2124,683.651 C 561.60807,629.26165 452.61873,662.32424 419.93892,751.28371 264.12329,1175.3956 405.08821,1667.341 792.60872,1938.9366 c 13.21083,9.2589 26.61945,18.0415 40.10675,26.6158 456.82183,289.5485 1064.72223,172.3456 1379.82053,-273.5184 0.8028,-1.0991 1.6524,-2.1654 2.4481,-3.3008 C 2538.6611,1226.9014 2426.6742,590.07924 1964.8222,266.38811 1577.3009,-5.208024 1066.7819,30.137038 721.28537,321.31377"
      style="isolation:isolate;mix-blend-mode:multiply;fill:#f7f7f7;stroke-width:0.98536199" />
    <path
      d="m 363.64419,350.8671 c -72.46763,61.06797 -66.3568,174.79546 11.24752,229.18482 l 204.66371,143.43952 c 47.52169,33.30579 110.38318,32.43846 158.09493,-0.61408 166.44083,-115.22663 393.66865,-121.30232 569.13655,1.67516 225.1296,157.78308 279.7502,468.23208 121.9683,693.35988 -0.7958,1.1354 -1.6679,2.1858 -2.449,3.3002 -158.5086,222.3431 -466.93659,275.6717 -690.94853,118.6719 A 498.16747,498.16747 0 0 1 539.59833,1005.4655 C 554.38508,949.34329 533.7546,889.95425 486.23291,856.64844 L 281.56839,713.20836 C 203.96408,658.819 94.974729,691.8816 62.294909,780.84107 -93.520712,1204.953 47.444204,1696.8983 434.96471,1968.4939 c 13.21083,9.2589 26.61947,18.0416 40.10676,26.6158 456.82187,289.5486 1064.72233,172.3457 1379.82053,-273.5184 0.8028,-1.0991 1.6524,-2.1653 2.4481,-3.3007 C 2181.017,1256.4588 2069.0301,619.6366 1607.1782,295.94547 1219.6568,24.349334 709.13796,59.694396 363.64136,350.87113"
      style="opacity:0.328;fill:#ffffff;stroke-width:0.98536199" />
  </g>
</svg>
